<?xml version="1.0" encoding="UTF-8"?>
<svg id="Camada_4" data-name="Camada 4" xmlns="http://www.w3.org/2000/svg" xmlns:xlink="http://www.w3.org/1999/xlink" viewBox="0 0 850.39 566.93">
  <defs>
    <style>
      .cls-1 {
        fill: #284797;
      }

      .cls-2 {
        fill: #fff;
      }

      .cls-3 {
        fill: #633f91;
      }

      .cls-4 {
        fill: #014898;
      }

      .cls-5 {
        fill: #00a6e6;
      }

      .cls-6 {
        fill: #532e86;
      }

      .cls-7 {
        fill: none;
      }

      .cls-8 {
        fill: #1e0b39;
      }

      .cls-9 {
        fill: #241a43;
      }

      .cls-10 {
        fill: #00001d;
      }

      .cls-11 {
        clip-path: url(#clippath-1);
      }

      .cls-12 {
        clip-path: url(#clippath-5);
      }

      .cls-13 {
        clip-path: url(#clippath-3);
      }

      .cls-14 {
        fill: #133578;
      }

      .cls-15 {
        clip-path: url(#clippath-2);
      }

      .cls-16 {
        fill: #0065b0;
      }

      .cls-17 {
        fill: #3a2666;
      }

      .cls-18 {
        clip-path: url(#clippath);
      }
    </style>
    <clipPath id="clippath">
      <path class="cls-9" d="M151.81,253.29c-1.95,13.07-14.27,21.78-21.99,32.97-.85,1.42-1.13,3.03-1.21,4.58v42.07c0,17.87-13.38,32.37-29.88,32.37-8.25,0-15.72-3.62-21.13-9.48-5.4-5.86-8.75-13.95-8.75-22.89v-98.87c0-4.31.4-27.24,17.5-45.77,10.81-11.71,25.75-18.96,42.25-18.96h0v82.03c.4,6.15,5.5,11.12,11.53,11.23,5.53.1,10.39-3.91,11.67-9.27Z"/>
    </clipPath>
    <clipPath id="clippath-1">
      <path class="cls-7" d="M212.12,234.03v98.87c0,4.31-.4,27.24-17.5,45.77-10.81,11.71-25.75,18.96-42.26,18.96v-106.33c-.68-5.93-5.72-10.46-11.63-10.52-6.01-.06-11.41,4.62-12.1,10.64v-1.97c.09-1.55.6-3.26,1.45-4.68,7.71-11.19,20.03-19.9,21.99-32.97.15-.64.25-1.31.29-1.98v-15.79c0-17.87,13.38-32.37,29.88-32.37s29.88,14.49,29.88,32.37Z"/>
    </clipPath>
    <clipPath id="clippath-2">
      <path class="cls-7" d="M213.56,310.82c-.09.45-.47.95-.7,1.34-.14.23-.29.46-.44.68-.08.12-.29.43-.29.56.02-.79-.06-1.57-.04-2.36.01-.47-.12-.4-.55-.45-.3-.04-.59-.07-.89-.11-1.1-.15-2.22-.27-3.3-.56-7.99-2.16-13.54-7.95-13.95-14.53-.25-3.99,1.67-7.88,4.6-11.26,5.45-6.29,15.55-7.63,15.55-7.63v32.81c0,.39,0,.79,0,1.18,0,.1.02.24,0,.34Z"/>
    </clipPath>
    <clipPath id="clippath-3">
      <path class="cls-3" d="M213.56,310.82c-.09.45-.47.95-.7,1.34-.14.23-.29.46-.44.68-.08.12-.29.43-.29.56.02-.79-.06-1.57-.04-2.36.01-.47-.12-.4-.55-.45-.3-.04-.59-.07-.89-.11-1.1-.15-2.22-.27-3.3-.56-7.99-2.16-13.54-7.95-13.95-14.53-.25-3.99,1.67-7.88,4.6-11.26,5.45-6.29,15.55-7.63,15.55-7.63v32.81c0,.39,0,.79,0,1.18,0,.1.02.24,0,.34Z"/>
    </clipPath>
    <clipPath id="clippath-5">
      <path class="cls-5" d="M66.73,290.64c.11.24.35.38.57.58.55.51,1.05,1.05,1.55,1.62,0-.63.03-1.26.04-1.89,0-.35-.09-.48.24-.56.28-.07.59-.07.87-.11.96-.13,1.94-.24,2.87-.49,8-2.12,13.6-7.9,14.06-14.51.28-4.01-1.61-7.93-4.51-11.35-5.4-6.36-15.75-7.78-15.75-7.78v33.54c0,.18,0,.36,0,.54,0,.06,0,.13,0,.19,0,.08.03.15.06.21Z"/>
    </clipPath>
  </defs>
  <path class="cls-14" d="M212.12,234.03v98.87c0,4.31-.4,27.24-17.5,45.77-10.81,11.71-25.75,18.96-42.26,18.96v-106.33c-.68-5.93-5.72-10.46-11.63-10.52-6.01-.06-11.41,4.62-12.1,10.64l.24-2.08c.09-1.55.37-3.16,1.22-4.58,7.71-11.19,20.03-19.9,21.99-32.97.15-.64.25-1.31.29-1.98v-15.79c0-17.87,13.38-32.37,29.88-32.37s29.88,14.49,29.88,32.37Z"/>
  <g>
    <path class="cls-9" d="M151.81,253.29c-1.95,13.07-14.27,21.78-21.99,32.97-.85,1.42-1.13,3.03-1.21,4.58v42.07c0,17.87-13.38,32.37-29.88,32.37-8.25,0-15.72-3.62-21.13-9.48-5.4-5.86-8.75-13.95-8.75-22.89v-98.87c0-4.31.4-27.24,17.5-45.77,10.81-11.71,25.75-18.96,42.25-18.96h0v82.03c.4,6.15,5.5,11.12,11.53,11.23,5.53.1,10.39-3.91,11.67-9.27Z"/>
    <g class="cls-18">
      <ellipse class="cls-17" cx="133.93" cy="266.59" rx="58.83" ry="87.26"/>
      <ellipse class="cls-6" cx="144.11" cy="268.31" rx="56.2" ry="77.15"/>
      <ellipse class="cls-3" cx="156.7" cy="269.13" rx="56.2" ry="65.49"/>
    </g>
  </g>
  <g class="cls-11">
    <ellipse class="cls-4" cx="153.22" cy="295.27" rx="51.04" ry="81.91"/>
    <ellipse class="cls-16" cx="142.38" cy="297.28" rx="51.03" ry="67.99"/>
    <ellipse class="cls-5" cx="129.61" cy="296.66" rx="48.03" ry="55.54"/>
  </g>
  <g>
    <g class="cls-15">
      <rect class="cls-2" x="211.69" y="310.6" width="2.3" height="2.7"/>
    </g>
    <g>
      <path class="cls-3" d="M213.56,310.82c-.09.45-.47.95-.7,1.34-.14.23-.29.46-.44.68-.08.12-.29.43-.29.56.02-.79-.06-1.57-.04-2.36.01-.47-.12-.4-.55-.45-.3-.04-.59-.07-.89-.11-1.1-.15-2.22-.27-3.3-.56-7.99-2.16-13.54-7.95-13.95-14.53-.25-3.99,1.67-7.88,4.6-11.26,5.45-6.29,15.55-7.63,15.55-7.63v32.81c0,.39,0,.79,0,1.18,0,.1.02.24,0,.34Z"/>
      <g class="cls-13">
        <rect class="cls-8" x="211.69" y="310.6" width="2.3" height="2.7"/>
      </g>
    </g>
  </g>
  <g>
    <path class="cls-5" d="M66.73,290.64c.11.24.35.38.57.58.55.51,1.05,1.05,1.55,1.62,0-.63.03-1.26.04-1.89,0-.35-.09-.48.24-.56.28-.07.59-.07.87-.11.96-.13,1.94-.24,2.87-.49,8-2.12,13.6-7.9,14.06-14.51.28-4.01-1.61-7.93-4.51-11.35-5.4-6.36-15.75-7.78-15.75-7.78v33.54c0,.18,0,.36,0,.54,0,.06,0,.13,0,.19,0,.08.03.15.06.21Z"/>
    <g class="cls-12">
      <polygon class="cls-1" points="66.56 292.84 69.17 292.87 69.28 290.36 66.56 290.36 66.56 292.84"/>
    </g>
  </g>
  <g>
    <g>
      <path class="cls-10" d="M344.76,310.01c-.07.21-.11.44-.11.69v27.99c0,12.74,10.33,23.06,23.06,23.06h0v-51c0-6.73-1.19-13.07-3.56-19.02-2.37-5.95-5.65-11.14-9.83-15.57-4.18-4.43-9.14-7.94-14.88-10.52-5.74-2.59-11.98-3.88-18.71-3.88-4.75,0-9.26.83-13.55,2.5-4.29,1.67-8.27,3.99-11.96,6.96l-1.01-51.27-.1-4.11h0c-12.12,0-21.95,9.83-21.95,21.95v112.74c0,.88.07,1.76.3,2.6.6,2.18,1.62,3.98,3.05,5.41,1.03,1.03,2.25,1.84,3.67,2.44,1.42.6,2.94.9,4.57.9s3.13-.3,4.52-.9c1.38-.6,2.59-1.42,3.61-2.44,1.43-1.43,2.45-3.24,3.05-5.43.23-.84.29-1.71.29-2.58v-40.51c0-3.68.66-7.07,1.97-10.15,1.31-3.08,3.1-5.74,5.37-7.97,2.27-2.23,4.96-3.97,8.08-5.21,3.12-1.24,6.48-1.86,10.1-1.86s6.77.66,9.67,1.96c2.9,1.31,5.4,3.1,7.49,5.37,2.09,2.27,3.74,4.93,4.94,7.97s1.84,6.34,1.91,9.88Z"/>
      <path class="cls-10" d="M483.15,265.64c-12.74,0-23.06,10.33-23.06,23.06v23.78c0,3.61-.55,7.01-1.65,10.2s-2.66,5.97-4.68,8.34c-2.02,2.38-4.48,4.25-7.39,5.63-2.91,1.38-6.2,2.07-9.88,2.07s-7-.67-10.15-2.02c-3.15-1.34-5.88-3.19-8.18-5.53-2.3-2.34-4.11-5.08-5.42-8.24-1.31-3.15-1.96-6.53-1.96-10.15v-35.63c0-6.37-5.16-11.53-11.53-11.53h0c-6.37,0-11.53,5.16-11.53,11.53v35.52c0,6.73,1.27,13.07,3.83,19.02,2.55,5.95,6.02,11.16,10.42,15.62s9.55,7.99,15.47,10.58c5.91,2.59,12.27,3.88,19.08,3.88s13.07-1.31,18.81-3.93c5.74-2.62,10.66-6.18,14.77-10.68,4.11-4.5,7.32-9.76,9.62-15.78,2.3-6.02,3.45-12.44,3.45-19.24v-46.52h0Z"/>
      <path class="cls-10" d="M601.5,291.33c-2.66-6.17-6.27-11.53-10.84-16.1-4.57-4.57-9.92-8.18-16.05-10.84-6.13-2.66-12.7-3.99-19.72-3.99-5.1,0-9.97.73-14.62,2.18s-8.98,3.49-13.02,6.11v-43.58h0c-12.74,0-23.06,10.33-23.06,23.06v62.92c0,6.95,1.33,13.5,3.99,19.66,2.66,6.16,6.29,11.55,10.89,16.15,4.6,4.61,9.99,8.24,16.16,10.9,6.16,2.66,12.72,3.98,19.66,3.98s13.59-1.33,19.72-3.98c6.13-2.66,11.48-6.29,16.05-10.9,4.57-4.6,8.18-9.99,10.84-16.15,2.66-6.17,3.99-12.72,3.99-19.66s-1.33-13.61-3.99-19.77ZM580.3,321.78c-1.42,3.37-3.38,6.31-5.9,8.82-2.52,2.52-5.44,4.5-8.77,5.95-3.33,1.45-6.91,2.18-10.74,2.18s-7.41-.73-10.74-2.18-6.25-3.44-8.77-5.95c-2.52-2.51-4.5-5.45-5.95-8.82-1.45-3.37-2.18-6.93-2.18-10.68s.73-7.42,2.18-10.79c1.45-3.37,3.43-6.29,5.95-8.77,2.51-2.48,5.44-4.45,8.77-5.9,3.33-1.45,6.91-2.18,10.74-2.18s7.4.73,10.74,2.18c3.33,1.45,6.25,3.42,8.77,5.9,2.51,2.48,4.48,5.4,5.9,8.77,1.42,3.37,2.13,6.96,2.13,10.79s-.71,7.32-2.13,10.68Z"/>
      <path class="cls-10" d="M670.59,226.86c-2.23-2.23-5.02-3.35-8.35-3.35-4.75,0-9.21.92-13.39,2.76-4.18,1.84-7.81,4.32-10.89,7.44-3.08,3.12-5.53,6.78-7.33,11-1.81,4.22-2.71,8.66-2.71,13.34v13.91s0,.02-.02.02c-7.77,0-14.07,6.31-14.07,14.08v8.97s0,.02.02.02h14.05s.02,0,.02.02v43.96c0,12.73,10.32,23.05,23.05,23.05h0s.02,0,.02-.02v-67s0-.02.02-.02h7.74c1.63,0,3.15-.3,4.57-.9,1.42-.6,2.64-1.42,3.67-2.44s1.84-2.25,2.44-3.67c.6-1.42.9-2.94.9-4.57s-.3-3.14-.9-4.52c-.6-1.38-1.42-2.59-2.44-3.61-1.03-1.02-2.25-1.84-3.67-2.44-1.42-.6-2.94-.9-4.57-.9h-7.74s-.02,0-.02-.02v-13.59c0-1.56.26-3.03.8-4.41s1.28-2.6,2.23-3.67c.96-1.06,2.09-1.93,3.4-2.6,1.31-.67,2.74-1.05,4.31-1.12h.53c1.63,0,3.15-.3,4.57-.9,1.42-.6,2.66-1.4,3.72-2.39,1.09-1.02,1.94-2.26,2.55-3.73.55-1.32.91-3.63.84-5.06-.15-3.02-1.26-5.56-3.33-7.64Z"/>
      <path class="cls-10" d="M760.66,258.18v54.08c0,3.69-.67,7.12-2.02,10.31-1.35,3.19-3.17,5.97-5.47,8.34-2.3,2.38-5.03,4.25-8.18,5.63-3.15,1.38-6.54,2.07-10.15,2.07s-7.01-.66-10.2-1.97c-3.19-1.31-5.95-3.12-8.29-5.42-2.34-2.3-4.18-5.03-5.53-8.18-1.35-3.15-2.02-6.53-2.02-10.15v-39.75c0-1.56-.3-3.03-.9-4.41-.6-1.38-1.44-2.6-2.5-3.67-1.06-1.06-2.3-1.9-3.72-2.5-1.42-.6-2.91-.91-4.47-.91s-3.05.3-4.46.91c-1.42.6-2.64,1.43-3.67,2.5s-1.84,2.29-2.44,3.67c-.6,1.38-.9,2.85-.9,4.41v39.54c0,5.74.94,11.2,2.82,16.37,1.88,5.17,4.48,9.85,7.81,14.03,3.33,4.18,7.26,7.76,11.8,10.74,4.53,2.97,9.49,5.14,14.88,6.48v35.55h0c12.74,0,23.06-10.33,23.06-23.06v-12.38c5.38-1.27,10.38-3.4,14.99-6.38,4.6-2.98,8.57-6.55,11.9-10.74,3.33-4.18,5.95-8.88,7.87-14.08,1.91-5.21,2.87-10.72,2.87-16.53v-77.57c-12.74,0-23.06,10.33-23.06,23.06Z"/>
    </g>
    <g>
      <path d="M344.76,310.01c-.07.21-.11.44-.11.69v27.99c0,12.74,10.33,23.06,23.06,23.06h0v-51c0-6.73-1.19-13.07-3.56-19.02-2.37-5.95-5.65-11.14-9.83-15.57-4.18-4.43-9.14-7.94-14.88-10.52-5.74-2.59-11.98-3.88-18.71-3.88-4.75,0-9.26.83-13.55,2.5-4.29,1.67-8.27,3.99-11.96,6.96l-1.01-51.27-.1-4.11h0c-12.12,0-21.95,9.83-21.95,21.95v112.74c0,.88.07,1.76.3,2.6.6,2.18,1.62,3.98,3.05,5.41,1.03,1.03,2.25,1.84,3.67,2.44,1.42.6,2.94.9,4.57.9s3.13-.3,4.52-.9c1.38-.6,2.59-1.42,3.61-2.44,1.43-1.43,2.45-3.24,3.05-5.43.23-.84.29-1.71.29-2.58v-40.51c0-3.68.66-7.07,1.97-10.15,1.31-3.08,3.1-5.74,5.37-7.97,2.27-2.23,4.96-3.97,8.08-5.21,3.12-1.24,6.48-1.86,10.1-1.86s6.77.66,9.67,1.96c2.9,1.31,5.4,3.1,7.49,5.37,2.09,2.27,3.74,4.93,4.94,7.97s1.84,6.34,1.91,9.88Z"/>
      <path d="M483.15,265.64c-12.74,0-23.06,10.33-23.06,23.06v23.78c0,3.61-.55,7.01-1.65,10.2s-2.66,5.97-4.68,8.34c-2.02,2.38-4.48,4.25-7.39,5.63-2.91,1.38-6.2,2.07-9.88,2.07s-7-.67-10.15-2.02c-3.15-1.34-5.88-3.19-8.18-5.53-2.3-2.34-4.11-5.08-5.42-8.24-1.31-3.15-1.96-6.53-1.96-10.15v-35.63c0-6.37-5.16-11.53-11.53-11.53h0c-6.37,0-11.53,5.16-11.53,11.53v35.52c0,6.73,1.27,13.07,3.83,19.02,2.55,5.95,6.02,11.16,10.42,15.62s9.55,7.99,15.47,10.58c5.91,2.59,12.27,3.88,19.08,3.88s13.07-1.31,18.81-3.93c5.74-2.62,10.66-6.18,14.77-10.68,4.11-4.5,7.32-9.76,9.62-15.78,2.3-6.02,3.45-12.44,3.45-19.24v-46.52h0Z"/>
      <path d="M601.5,291.33c-2.66-6.17-6.27-11.53-10.84-16.1-4.57-4.57-9.92-8.18-16.05-10.84-6.13-2.66-12.7-3.99-19.72-3.99-5.1,0-9.97.73-14.62,2.18s-8.98,3.49-13.02,6.11v-43.58h0c-12.74,0-23.06,10.33-23.06,23.06v62.92c0,6.95,1.33,13.5,3.99,19.66,2.66,6.16,6.29,11.55,10.89,16.15,4.6,4.61,9.99,8.24,16.16,10.9,6.16,2.66,12.72,3.98,19.66,3.98s13.59-1.33,19.72-3.98c6.13-2.66,11.48-6.29,16.05-10.9,4.57-4.6,8.18-9.99,10.84-16.15,2.66-6.17,3.99-12.72,3.99-19.66s-1.33-13.61-3.99-19.77ZM580.3,321.78c-1.42,3.37-3.38,6.31-5.9,8.82-2.52,2.52-5.44,4.5-8.77,5.95-3.33,1.45-6.91,2.18-10.74,2.18s-7.41-.73-10.74-2.18-6.25-3.44-8.77-5.95c-2.52-2.51-4.5-5.45-5.95-8.82-1.45-3.37-2.18-6.93-2.18-10.68s.73-7.42,2.18-10.79c1.45-3.37,3.43-6.29,5.95-8.77,2.51-2.48,5.44-4.45,8.77-5.9,3.33-1.45,6.91-2.18,10.74-2.18s7.4.73,10.74,2.18c3.33,1.45,6.25,3.42,8.77,5.9,2.51,2.48,4.48,5.4,5.9,8.77,1.42,3.37,2.13,6.96,2.13,10.79s-.71,7.32-2.13,10.68Z"/>
      <path d="M670.59,226.86c-2.23-2.23-5.02-3.35-8.35-3.35-4.75,0-9.21.92-13.39,2.76-4.18,1.84-7.81,4.32-10.89,7.44-3.08,3.12-5.53,6.78-7.33,11-1.81,4.22-2.71,8.66-2.71,13.34v13.91s0,.02-.02.02c-7.77,0-14.07,6.31-14.07,14.08v8.97s0,.02.02.02h14.05s.02,0,.02.02v43.96c0,12.73,10.32,23.05,23.05,23.05h0s.02,0,.02-.02v-67s0-.02.02-.02h7.74c1.63,0,3.15-.3,4.57-.9,1.42-.6,2.64-1.42,3.67-2.44s1.84-2.25,2.44-3.67c.6-1.42.9-2.94.9-4.57s-.3-3.14-.9-4.52c-.6-1.38-1.42-2.59-2.44-3.61-1.03-1.02-2.25-1.84-3.67-2.44-1.42-.6-2.94-.9-4.57-.9h-7.74s-.02,0-.02-.02v-13.59c0-1.56.26-3.03.8-4.41s1.28-2.6,2.23-3.67c.96-1.06,2.09-1.93,3.4-2.6,1.31-.67,2.74-1.05,4.31-1.12h.53c1.63,0,3.15-.3,4.57-.9,1.42-.6,2.66-1.4,3.72-2.39,1.09-1.02,1.94-2.26,2.55-3.73.55-1.32.91-3.63.84-5.06-.15-3.02-1.26-5.56-3.33-7.64Z"/>
      <path d="M760.66,258.18v54.08c0,3.69-.67,7.12-2.02,10.31-1.35,3.19-3.17,5.97-5.47,8.34-2.3,2.38-5.03,4.25-8.18,5.63-3.15,1.38-6.54,2.07-10.15,2.07s-7.01-.66-10.2-1.97c-3.19-1.31-5.95-3.12-8.29-5.42-2.34-2.3-4.18-5.03-5.53-8.18-1.35-3.15-2.02-6.53-2.02-10.15v-39.75c0-1.56-.3-3.03-.9-4.41-.6-1.38-1.44-2.6-2.5-3.67-1.06-1.06-2.3-1.9-3.72-2.5-1.42-.6-2.91-.91-4.47-.91s-3.05.3-4.46.91c-1.42.6-2.64,1.43-3.67,2.5s-1.84,2.29-2.44,3.67c-.6,1.38-.9,2.85-.9,4.41v39.54c0,5.74.94,11.2,2.82,16.37,1.88,5.17,4.48,9.85,7.81,14.03,3.33,4.18,7.26,7.76,11.8,10.74,4.53,2.97,9.49,5.14,14.88,6.48v35.55h0c12.74,0,23.06-10.33,23.06-23.06v-12.38c5.38-1.27,10.38-3.4,14.99-6.38,4.6-2.98,8.57-6.55,11.9-10.74,3.33-4.18,5.95-8.88,7.87-14.08,1.91-5.21,2.87-10.72,2.87-16.53v-77.57c-12.74,0-23.06,10.33-23.06,23.06Z"/>
    </g>
  </g>
</svg>